<svg version="1.1" xmlns="http://www.w3.org/2000/svg" xmlns:xlink="http://www.w3.org/1999/xlink" xmlns:a="http://ns.adobe.com/AdobeSVGViewerExtensions/3.0/" x="0px" y="0px" width="113.4px" height="9.3px" viewBox="0 0 113.4 9.3" style="enable-background:new 0 0 113.4 9.3;" xml:space="preserve" fill="#D2691E">
<path class="st0" d="M2.7,1.9c0.7,0,1.4,0.3,1.9,0.8c0.3,0.3,0.6,0.7,0.7,1.1h0.6C6,2.9,6.5,2,7.2,1.4l0,0C8,0.5,9.2,0,10.4,0
c1.3,0,2.5,0.5,3.3,1.4l0,0c0.6,0.7,1.1,1.5,1.3,2.5h4.4c0.1-0.4,0.4-0.8,0.7-1.1l0,0c0.5-0.5,1.2-0.7,1.9-0.7
c0.8,0,1.4,0.3,1.9,0.8c0.3,0.3,0.5,0.7,0.7,1.1c21.3,0,42.7,0,64.1,0c0.1-0.4,0.4-0.8,0.7-1.1l0,0c0.5-0.5,1.2-0.8,1.9-0.8
c0.8,0,1.4,0.3,1.9,0.8c0.3,0.3,0.6,0.7,0.7,1.1h4.4c0.2-0.9,0.6-1.8,1.2-2.5l0,0c0.8-0.8,2-1.4,3.3-1.4c1.3,0,2.5,0.5,3.3,1.4
c0.7,0.7,1.1,1.5,1.3,2.5h0.6c0.1-0.4,0.4-0.8,0.7-1.1l0,0c0.5-0.5,1.2-0.8,1.9-0.8c0.7,0,1.4,0.3,1.9,0.8c0.5,0.5,0.8,1.2,0.8,1.9
c0,0.7-0.3,1.4-0.8,1.9l0,0.1c-0.5,0.5-1.2,0.8-1.9,0.8c-0.7,0-1.4-0.3-1.9-0.8v0c-0.3-0.3-0.6-0.7-0.7-1.1h-0.6
c-0.2,1-0.6,1.8-1.3,2.5l0,0c-0.8,0.8-2,1.4-3.3,1.4c-1.3,0-2.4-0.5-3.3-1.4l0,0c-0.7-0.7-1.1-1.5-1.3-2.5h-4.4
c-0.1,0.4-0.4,0.8-0.6,1.1l0,0.1c-0.5,0.5-1.2,0.8-1.9,0.8c-0.7,0-1.4-0.3-1.9-0.8v0c-0.3-0.3-0.6-0.7-0.7-1.1
c-21.4,0-42.7,0-64.1,0c-0.1,0.4-0.4,0.8-0.7,1.1v0c-0.5,0.5-1.2,0.8-1.9,0.8c-0.7,0-1.4-0.3-1.9-0.8v0c-0.3-0.3-0.6-0.7-0.7-1.1H15
c-0.2,1-0.6,1.8-1.3,2.5l0,0c-0.8,0.8-2,1.3-3.2,1.3C9.2,9.3,8,8.8,7.2,7.9l0,0C6.5,7.3,6,6.4,5.9,5.4H5.3C5.2,5.9,4.9,6.2,4.6,6.6
v0C4.1,7,3.5,7.4,2.7,7.4C2,7.4,1.3,7,0.8,6.6l0,0C0.3,6.1,0,5.4,0,4.6c0-0.7,0.3-1.4,0.8-1.9l0.1,0C1.3,2.2,2,1.9,2.7,1.9L2.7,1.9z
M91.3,3.5c-0.3,0-0.6,0.1-0.8,0.3l0,0c-0.2,0.2-0.3,0.5-0.3,0.8c0,0.3,0.1,0.6,0.3,0.8c0.2,0.2,0.5,0.3,0.8,0.3
c0.3,0,0.6-0.1,0.8-0.3l0,0c0.2-0.2,0.3-0.5,0.3-0.8c0-0.3-0.1-0.6-0.3-0.8C91.9,3.6,91.7,3.5,91.3,3.5L91.3,3.5z M103,1.5
c-0.8,0-1.6,0.4-2.2,0.9l0,0c-0.6,0.6-0.9,1.3-0.9,2.2c0,0.9,0.3,1.6,0.9,2.2c0.6,0.6,1.3,0.9,2.2,0.9c0.9,0,1.6-0.4,2.2-0.9l0,0
c0.6-0.6,0.9-1.3,0.9-2.2c0-0.8-0.4-1.6-0.9-2.2C104.6,1.9,103.8,1.5,103,1.5L103,1.5z M110.7,3.5c-0.3,0-0.6,0.1-0.8,0.3l0,0
c-0.2,0.2-0.3,0.5-0.3,0.8c0,0.3,0.1,0.6,0.3,0.8c0.2,0.2,0.5,0.3,0.8,0.3c0.3,0,0.6-0.1,0.8-0.3l0,0c0.2-0.2,0.3-0.5,0.3-0.8
c0-0.3-0.1-0.6-0.4-0.8C111.3,3.6,111,3.5,110.7,3.5L110.7,3.5z M22.9,3.8c-0.2-0.2-0.5-0.3-0.8-0.3c-0.3,0-0.6,0.1-0.8,0.3l0,0
C21,4,20.9,4.3,20.9,4.6c0,0.3,0.1,0.6,0.3,0.8c0.2,0.2,0.5,0.3,0.8,0.3c0.3,0,0.6-0.1,0.8-0.3l0,0c0.2-0.2,0.3-0.5,0.3-0.8
C23.2,4.3,23.1,4,22.9,3.8L22.9,3.8z M12.7,2.5c-0.6-0.6-1.3-0.9-2.2-0.9c-0.8,0-1.6,0.4-2.2,0.9l0,0C7.7,3,7.4,3.8,7.4,4.6
c0,0.9,0.4,1.6,0.9,2.2l0,0c0.6,0.6,1.3,0.9,2.2,0.9c0.8,0,1.6-0.3,2.2-0.9l0,0c0.6-0.6,0.9-1.3,0.9-2.2C13.6,3.8,13.2,3,12.7,2.5
L12.7,2.5z M3.5,3.8C3.3,3.6,3,3.5,2.7,3.5c-0.3,0-0.6,0.1-0.8,0.3l0,0C1.7,4,1.5,4.3,1.5,4.6c0,0.3,0.1,0.6,0.3,0.8
c0.2,0.2,0.5,0.3,0.8,0.3c0.3,0,0.6-0.1,0.8-0.3l0,0C3.7,5.3,3.9,5,3.9,4.6C3.9,4.3,3.7,4,3.5,3.8L3.5,3.8z"></path>
</svg>