<svg class="svg__tear svg__tear-top" xmlns="http://www.w3.org/2000/svg" viewBox="0 0 1400 104.45" fill="#e5e7eB"><defs><style>.cls-1{fill:#e5e7eB}</style></defs><g id="Layer_2" data-name="Layer 2"><g id="Layer_1-2" data-name="Layer 1"><path fill="#e5e7eB" class="cls-1" d="M1337.22,40.76a2.58,2.58,0,0,0,.57.88A2.58,2.58,0,0,1,1337.22,40.76Z"></path><path fill="#e5e7eB" class="cls-1" d="M1400,0H0V88.15c1.3.11,1.11-1.68,2.35-1.92.13,1.28-.36,3.15,2,2.62s.42-1.46.34-2.31C4.46,84.23,5.8,86,6.44,86h0a3.69,3.69,0,0,1,3.46-2.2,72.21,72.21,0,0,1,18.28,1.87c2.62.64,5.5-.17,7.88,1.55.87.63,2,1.1,2.12,2.33.06.54-.51.77-1,.78-1.31,0-2.73.33-3.54-1.18l-.9-1.71c-1.74,2.75.52,4,1.35,5.62,1.45-1.13,3.37,3.45,4.72-.46.43-1.24,1.71,0,2.57.08,1.07.15,1.71,1.38,2.93,1.31,1.08-.06,2-.39,2.07-1.59s-.89-1.19-1.75-1.3c-1.4-.17-2.89.42-4.69-.75,3.33-1.05,6.11,0,8.88.44,1.21.2,2.35.63,3.44-.3.89-.77,1.83-2,3.08-.95s.87,2.41.26,3.7c-.28.6-1.24,1.17-.47,1.85s1.55,0,2.12-.63a3.88,3.88,0,0,1,4.48-1.36c2.14.62,3.36-1.69,5.82-1.79,4.1-.18,8.33,1.22,12.36-.34.89-.34,1.31.34,2,.55a4,4,0,0,0,4.7-1.28c-1.42-.93-2.78-.47-4-.61-.9-.1-2.17.27-2.24-1.17-.06-1.19.9-1.66,2-1.7,3.86-.16,7.74-.57,11.58-.36,7,.39,13.89,1.31,20.85,1.74,8.84.55,17.85-.74,26.53,1,7.23,1.42,14.45.84,21.64,1.7,9.57,1.14,19.17,2.23,28.79,2.63.94.07,1.82.11,2.6.1,1.88.05,3.81,0,5.75-.17s4.11-.21,6-.32h1.57a11.41,11.41,0,0,0,2.76-.28l3.68-.28,9.29-7,31-1.87a99.86,99.86,0,0,1,12.4,1.5,56.82,56.82,0,0,0,10.15.86L290,87.45l37,6.44c1.88,1.19,3.89,2.36,6.57,1.93,1.86-.3,3,1.65,4,3.27a6.5,6.5,0,0,0,3.51-.64c.62-.35,1.73-.92,2-.7,3.49,3.36,8,.67,11.82,2.17,1.91.76,3.72-.21,5.56-.56,3.29-.62,5.21.53,5.58,3.38a15,15,0,0,1,1.4-.56L380,104.45l.93-2.16c.84.16,1.67.31,2.51.45,1.31-2.61,2.64-5.21,3.9-7.84a1.65,1.65,0,0,0,.1-1.35c-3.81-5,.27-2.42,2.35-2.75,7.6-1.21,14.77,1.67,21.7,3.28,5.83,1.35,12.6,1,17.93,5.31,1.37,1.1,4.61-.14,7-.29,1.68-.11,3.85,1.33,4.65-1.59.08-.31,1.12-.63,1.6-.51a13.72,13.72,0,0,0,7.13.19A1.89,1.89,0,0,1,452,99.09c-.2.44-.67,1-.55,1.32a10.76,10.76,0,0,1,.37,1.22c5-.74,12.67-.16,15.91-.6.33,1.51,1.55,1,2.35.95,3.67-.14,7.21,1.11,10.77,1.15,7.22.1,14.36,1.91,21.68.54,4.71-.88,9.61-.17,14.41.21,3.3.26,6-.37,8.22-3.14,1.55-2,3.43-3.86,6.36-1.87.31.21,1.12-.18,1.64-.43,1.84-.88,3.6-1.87,5.64-.3.42.32,1.39,0,2.09-.12,11.58-1.84,23.13-2.94,34.95-2.26,5.22.3,11,1.41,16.12-1.58a3.08,3.08,0,0,1,3.13.38c.59.38,1.46,1,1.93.8,5.32-2.11,10.16,1.28,15.37,1.38,8.32.17,16.65-.27,25,.18,2.15.12,4.28-1,6.41,0,1.94-2.13,7.47-1.67,8.75.73a13.68,13.68,0,0,1,5.1-.73c2.56-1.14,5.35-1,8-1.46-1.82-2.65-1.1-3.41,2.07-3.75,5.45-.6,10.68-1.12,16,1.18,1.58.69,3.72-.92,5.92-.45,5,1.05,10.13,1.62,15.21.11,3-.9,5.79-2.58,9.2-2.51,1.6,0,3.33-.36,5-.4,3.6-.08,7.33,1,10.51-1.94,1.41-1.31,3.46-.47,5.24-.25,5.88.71,11.47-1.52,17.27-1.75,3.24-.13,6.45-1.06,9.68-1.11,9.75-.13,19.49-.82,29.26-.82,3.45,0,7.19.35,10.88-.21s8.25-1.63,11.67,2c.41.43,3.17,2.21,2.86-1.39-.18-2.06,2.7-2.48,3.4-2.15,2.52,1.2,5.92.92,7.59,2.31,2.3,1.92,4.42,1.8,6.6,1.56,4.08-.44,8.21-.49,12.23-1.6,1.64-.45,3.6-.05,5.35.27,7.49,1.39,14.48-1.71,21.74-2.37,1.94-.18,2.55-3.43,5.3-3.23,1.91.13,3.81-1.13,5.44,1.3,1,1.42,2.61-.06,3.79-.77.57-.34,1.13-1.62,1.61-1.14,2.91,3,6,.71,8.82.25,10-1.63,20.24-1.4,30.14-3.61s19.88-3.09,29.76-5.08c7-1.41,14.12-2.87,21.37-2.92.36,0,1,0,1-.14,2.52-5.1,6.68-1.86,10.17-2,1.93-.1,3.9.35,5.78-.34,1-.37,2.52-.32,1.82-2.31-.62-1.77.83-2.22,2.19-2.63.85-.25,1.66-.62,2.24.35.49.82-.07,1.34-.66,1.82-2.11,1.73-.53,2.42.93,2.89a15,15,0,0,0,2.88.23c3,.34,4.71-.21,2.13-3.73,3.83.83,6.56-2.16,10-1.64.8.12,1.54-1.8,2.4-.45s-1.64,1.13-1.5,2.76c2.19-1,4.71.36,6.65-2.24,1.2-1.61,4.65-.49,5.28,0,3,2.31,5.68,1.26,8.53.24,4.65-1.67,9.56-.92,14.34-1.42,2.26-.24,4.24-.51,6-2.17,1.32-1.28,1.11-2.43-1.36-4.78,1.73-.54,3.14-1.38,5-.07a3.21,3.21,0,0,0,4-.36c.59-.55,1.3-.93,1.85-.17s.08,1.32-.74,1.64-1.06.93-.16,1.5,1.61.87,1.92-.48c.26-1.13.35-2,1.74-.68,2.44,2.27,4.7,1.27,6.52-.95,1.25-1.53,2.18-2.31,4.43-1.28,1.93.89,4.19.67,5.05-2.35.48-1.69,1.72-3.64,3.83-1,.83,1,1.71,1.15,2.67-.05s2.15-2.27,3.22-3.4c1.51-1.6,2.71-3.68,3.47.68.59,3.37,4.8,4.44,7.84,2.5,2.83-1.8,6-.47,9-.84,7.39-.92,14.9-1,22.34-1.41,3.34-.17,6,.61,9,1.1a11.55,11.55,0,0,0,5.68-.6c2.07-.7,4.3.8,6.63.54,2-.22,4,.78,5.88-.73.93-.74,1.84,0,2.36.86.37.65-.84,2.61.79,1.91,1.12-.48,3.42-1,3.17-3.24-.06-.49-.32-1,.22-1.14a1.62,1.62,0,0,1,1.3.21c5,3.89,7.95,4.4,12.69.87,3.73-2.78,7.37-.84,11-.63a24.08,24.08,0,0,0,3.71.1,30.43,30.43,0,0,1,12.27,1,5.4,5.4,0,0,0,1.78.28c9.66-.23,19.35-.08,29-.9,4.6-.39,9.3-.55,13.83-.69,5.5-.17,11.12-.25,16.66-.31,2.21,0,4.55-1.21,7-1,1.88-.21,3.9.58,5.61-.83.51-.42,1.23-.61,1.55.07.93,2,3.35,2.82,3.78,5.13,4.83.9,9.65,2.06,14.32,3.4s9.62.19,14.3,1.38c.92.23,1.19-.59,1.71-1,1.25-1.09,2.39-2.24,4.23-2.54,1.44-.23,2.07-1.47,2.82-2.86,1.1-2,2.69-4.27,5.65-4.17.72-4,.82-4.12,4.12-1.66,1.32,1,3.35.66,4.44,2.69-2.43.8-4.81.25-7.11.42,2.53,2.23,4.32,6.33,8.22,5.53,3.49-.72,6.83-.3,10.21-.34,4.66-.06,9.37,1,13.79-1.42a2.64,2.64,0,0,1,1.79-.09c7.87,2.19,16,3.84,22.54,9.16,2,1.64,2.32,4.74,4.77,6.11Z"></path></g></g></svg>