<svg version="1.1" xmlns="http://www.w3.org/2000/svg" xmlns:xlink="http://www.w3.org/1999/xlink" xmlns:a="http://ns.adobe.com/AdobeSVGViewerExtensions/3.0/" x="0px" y="0px" width="190.6px" height="63.7px" viewBox="0 0 190.6 63.7" style="enable-background:new 0 0 190.6 63.7;" xml:space="preserve" fill="#fff">
<g>
<path class="st0" d="M138.7,9.7c0.1,0.1-0.5,2.3-0.6,2.6c-0.8,2.6-1.5,5.3-2.4,7.8c-2,5.2-4.3,9.9-7.1,14.3c-1.3,2.1-3,4-4.5,5.9
c-1.4,1.8-4,4.7-6,5.8c0-0.1,0-0.2-0.2-0.2c0,0.1,0,0-0.1,0c-0.1-0.1-0.3-0.1-0.4-0.2c-0.1-2.2-1.3-4-1.8-5.8
c-0.2-0.8-0.2-1.6-0.6-2.2c-0.2-0.2-0.4-0.4-0.6-0.6c-0.2-0.5-0.5-0.9-0.7-1.4c-2.2-5-4.9-9.7-7.3-14.3c-0.2-0.2-0.4-0.4-0.6-0.6
c-0.4-0.7-0.9-1.3-1.3-2c-0.2-0.6-0.1-1.3-0.4-1.9c0,0.1,0,0.1,0,0.2c0-0.2,0-0.2-0.1-0.3c-0.5,0.3-1.5-0.7-1.8-1.1
c-1.2-1.2-2-1.7-4.3-1.3c0-0.6,0-1.1,0-1.7c2.9,0,5.7-1.2,7.3-2.3c0,0.2,0.1,0.3,0.2,0.3c0-0.1,0-0.2,0-0.3
c0.1,0.1,0.1,0.1,0.2,0.1c-0.1,0.1,0,0-0.1,0.1c0.2,0,0.3,0,0.5,0c0,0,0,0.1,0,0.1c0,0-0.1,0-0.1,0c0.1,0,0.2,0,0.2,0
c0,0,0.1-0.1,0.1-0.1c0,0-0.1,0.1-0.1,0.1c0-0.1,0.1-0.1,0.1-0.2c0.1-0.1,0.2-0.1,0.3-0.2c0.3,0.1,0.6,0.1,0.7,0.3h-0.2
c0,0,0,0,0,0.1c0.1,0,0.2-0.1,0.3-0.1c0.7,0.9,1.3,1.9,2,2.8c1.3,2.1,2.6,4.1,3.9,6.2c3.5,5.8,6.4,12.2,9,18.8
c0.2-0.1,0.3-0.3,0.5-0.4c0.4-0.5,0.8-1,1.2-1.5c0.6-0.9,1.1-1.8,1.7-2.7c2.1-3.5,3.2-7.8,4.3-12.3c0.4-1.6,0.8-3.5,0.9-5.4
c-1.3-0.2-2.5-0.5-3.8-0.7c-1.6-0.2-3.1-0.3-4.7-0.5c-1.2-0.2-2.7-0.6-4.1-0.3c-1.8,0.4-3.3,1.4-4.3,2.6c-0.1-0.1-0.2-0.2-0.3-0.2
c-0.3-0.3-0.5-0.6-0.8-0.9c0.8-0.7,1.6-1.4,2.4-2.1c1.5-1.2,2.9-2.9,4.8-3.5c0-0.1,0,0,0-0.1c0.5-0.4,1.1-0.3,1.7-0.5
c0.1,0,0.2,0.1,0.3,0.2v0h-0.2c0,0.1,0.1,0.1,0.1,0.2c0,0,0.1,0.1,0.1,0.1c0.4-0.2,0.7,0.1,1-0.2c-0.1-0.1,0,0-0.1-0.2
c-0.1,0-0.1,0-0.2,0c0,0.1,0.1,0.1-0.1,0.2c0-0.1,0-0.1,0-0.2c0.1-0.1,0.3-0.2,0.4-0.3c0.1,0,0.1,0,0.2,0c0.1,0.2,0.1,0.1,0.2,0.2
V10c-0.1,0,0,0-0.1-0.1h0.2c0,0.1-0.1,0.1-0.1,0.2c0.1-0.1,0.5-0.1,0.7-0.2c0,0.1-0.1,0.2,0.1,0.2c1.5,0,3.7,0.2,5.6,0.6h1.5
c1.8,0,3.5-0.1,5-0.4C137.1,10.1,138,10.1,138.7,9.7"></path>
<path class="st0" d="M146.7,0c1.5,0,2.8,0.1,3.3,1.1c-0.2,0-0.1,0.1-0.2,0h-0.1v0.2c0.2,0.2,0.3,0.4,0.2,0.6c0,0-0.1,0-0.1,0
c0-0.1,0-0.2,0-0.3h0v0.8c0,0,0.1-0.1,0.1-0.1V1.9c0.1,0,0.1,0,0.2,0c-0.1,0.3,0,0.4,0.2,0.8h-0.2c0,0,0.1,0.1,0.1,0.1
c0.1,0,0.2-0.1,0.3,0.1c-0.1,0-0.2,0.1-0.3,0.1c0,0,0,0.1,0,0.1c0.2,0,0.2,0.1,0.2,0.3c0.1-0.1,0.2-0.1,0.3-0.2
c0.5,3.3-3.3,4.6-5.6,2.9c-1.2-0.9-1.7-3.5-0.6-4.9C144.9,0.3,145.7,0.4,146.7,0"></path>
<path class="st0" d="M153.9,42.9v1.6h-0.5c-0.1-0.2-0.1-0.4-0.2-0.5h0c-0.1,0.2-0.2,0.1-0.3,0.3c0,0.1,0,0.2,0,0.3h-1.4
c0-0.1,0-0.2,0-0.3c0,0.1,0,0.2,0,0.3c0,0,0-0.1,0-0.1c-0.2-0.2-0.3-0.8-0.4-0.5c-0.2,0-0.2,0-0.3,0c0-0.1,0.1,0,0-0.2
c-0.1,0-0.2,0-0.3,0c-0.1,0.2,0,0.3-0.3,0.3c0.1,0.1,0.1,0.1,0,0.3c-0.1-0.1,0,0-0.1-0.1c0,0,0.1-0.1,0.1-0.2c-0.2,0-0.1,0.1-0.2,0
c-0.2,0.1-0.1,0.4-0.3,0.6v-0.1c0,0-0.1,0-0.1,0v0.2c-0.3,0-0.6,0-0.7-0.2h0c0,0.2,0,0.2-0.1,0.3c0,0-0.1,0-0.1,0
c0.1-0.1,0.1-0.2,0-0.3c0,0.1-0.1,0.1-0.1,0.2c0,0,0-0.1-0.1-0.1c0,0.1,0,0.1,0,0.2h0c0-0.1-0.1-0.2-0.1-0.3c0,0-0.1,0.1-0.1,0.1
c0,0.1-0.1,0.3-0.1,0.4c-0.1-0.1-0.3-0.3-0.4-0.4c0-0.1,0-0.1,0-0.1c-0.1-0.1-0.3-0.1-0.5-0.1c-0.1,0.2-0.2,0.5-0.3,0.7
c-0.1,0-0.3,0-0.4,0v0c0.1-0.3,0.3-0.6,0.3-0.9c-0.4,0-0.5,0.1-0.8,0.2c0-0.2,0,0-0.2-0.2c0,0,0.1-0.1,0.1-0.1h0c0,0-0.1,0-0.1,0
v0.3c0,0-0.1-0.1-0.1-0.1c0,0-0.2-0.2-0.2-0.3c0,0.1,0,0-0.1,0c-0.2,0.1-0.1,0.3-0.2,0.4c0,0-0.1-0.1-0.1-0.1c0,0,0,0.1,0,0.1
c0,0.1,0.1,0.1,0,0.2c0-0.2-0.1-0.4-0.1-0.6c0,0,0,0-0.1,0c0,0,0,0.1,0,0.1c0,0-0.1-0.1-0.1-0.1c0-0.1-0.1-0.2-0.1-0.2h0
c0,0.1,0,0.1,0,0.2c0.1,0.2,0.2,0.3,0.2,0.5h0c0,0-0.1,0-0.1,0c0-0.1,0-0.2,0-0.2c0,0-0.1,0-0.1,0v0.2c0-0.1-0.2-0.3-0.3-0.3
c0,0.1,0,0.3,0,0.4c-0.1-0.1-0.1-0.2-0.1-0.3h-0.2v0c0.1,0.3,0,0.3,0.1,0.5h-0.2c0-0.2,0-0.3-0.1-0.3h0c0,0.2,0,0-0.1,0.1
c0.2-1.3,0.4-2.7,0.6-4c0.1-1,0.2-1.9,0.2-2.9c0.1-2.1,0.3-4.3,0.4-6.4c0.1-1.1,0.1-2.2,0.2-3.3c0.1-0.5,0.4-1.2,0.5-1.4
c0.1-0.1,0.1-0.4,0-0.3c0-0.2-0.1-0.2,0-0.2c0,0,0,0,0,0c0-0.2-0.1-0.5,0-0.7c-0.1,0-0.2,0-0.2,0c0.1-0.1,0.1-0.1,0.2-0.3
c0,0-0.1-0.1-0.1-0.1c-0.1,0.1,0,0-0.2,0c0.1-5.4,1.1-12.6-4.6-12.6c0.2-0.5,0.3-1.1,0.5-1.6c3.5,0.5,7.5,0,10.6-0.3v0
c0,0.1,0,0.1-0.1,0.2c0.1,0,0,0,0.1,0c-0.3,1,0,1.8-0.5,2.4c0.1,0,0.1,0,0.2,0.1c0,0.1,0,0.1-0.1,0.2c0,0,0-0.1,0-0.1
c0,0.1,0,0.1,0,0.2c0.1,0,0.1,0,0.2-0.1c-0.1,0.1-0.2,0.2-0.2,0.2c0.1,0,0.1,0,0.2,0H151c0,0.1-0.2,2.8-0.3,3c0,0,0,0,0,0
c0,0-0.1,0.1-0.1,0.1c0.1,0,0.1-0.1,0.1,0c0,0-0.1,0-0.1,0c0.2,0,0.1-0.1,0.3,0.1c-0.1,0-0.2,0-0.2,0c0,0.3,0,0.2-0.1,0.4
c0.1,0.1,0,0,0.1,0.1c0.1,0,0.1-0.1,0.2-0.2c-0.1,0.3-0.2,0.3,0,0.6c-0.2,0-0.1,0-0.1,0.1c0,0,0.1,0,0.1,0V18c0,0-0.1,0-0.1,0
c0,0,0.1-0.1,0.1-0.2c0,0-0.1,0-0.1,0.1c0,0,0,0-0.1,0c0.1,0.2,0.1,0.3,0.3,0.3c0.1,0.1,0,0,0.1,0c-0.5,3-0.3,6.8-0.3,10.2
c0,2.9,0.1,5.9,0.1,8.8c0,0.8,0.1,1.7,0.1,2.5C151.2,41.6,151.9,42.9,153.9,42.9"></path>
<path class="st0" d="M89,11.7c0,0,0.1,0,0.1,0c0,0-0.1,0.1-0.1,0.1c0.1,0,0.2-0.1,0.2-0.1v0.1c0,0,0,0.1-0.1,0.1
c-0.1,0.1-0.2,0.1-0.3,0.2c0,0,0.1,0.1,0.1,0.1c0.1,0,0.1,0,0.2,0c0-0.2,0-0.2,0.2-0.3h0.6c-0.1,0.1,0,0.1-0.2,0.2
c-0.1-0.1,0,0-0.2,0c0.1,0.1,0.1,0.1,0.1,0.2c0.2-0.1,0-0.1,0.3-0.1v0c0,0-0.1,0.1-0.1,0.1c0.3-0.1,0.4-0.1,0.7-0.1
c-0.1-0.2-0.1-0.2,0-0.3c0.1,0,0.2,0,0.3,0.1c0-0.1-0.1-0.1-0.1-0.2c0.4,0.1,0.5-0.1,0.9,0.1c0,0-0.1,0-0.1,0.1
c-0.1,0-0.2,0-0.3,0.2c0.2,0,0.3,0,0.6,0.1c0,0-0.1,0.1-0.1,0.1c-0.1,0-0.1,0-0.2,0c0,0.1,0.1,0.1,0.1,0.2c0,0,0.1,0.1,0.1,0.1
c0.1-0.1,0.1-0.1,0.2-0.1c-0.1,0-0.1-0.1-0.2-0.1c0.1-0.2,0-0.1,0.1-0.3c0,0,0.1,0,0.1,0c0,0.1-0.1,0.2,0.1,0.3c0-0.1,0-0.1,0.2,0
c0,0-0.1,0.1-0.1,0.1h0.5c0,0,0.1-0.1,0.1-0.1c-0.1-0.1,0,0-0.1-0.2c0,0-0.1,0-0.2,0c0,0.1,0.1,0.1-0.1,0.2v-0.1v-0.2
c0.2,0,0.2-0.1,0.3-0.2c-0.1,0,0,0,0-0.1c0.2,0.1,0.1,0.2,0.3,0.3v-0.1c-0.1-0.1,0,0-0.1-0.1h0.2c0.1,0.2,1,0.2,1.3,0.4
c0.6,0.4,1,1.1,1.3,1.7c0.4,0.9,0.4,2,0.6,3c0,0.8,0.1,1.5,0.1,2.3c0,4.3-2,6.2-4.7,7.9c-0.6,0.3-1.2,0.6-1.8,0.9
c0.1,0.2,0.3,0.5,0.3,0.7c-0.1-0.1,0,0-0.2-0.1V29c0,0,0-0.1,0-0.1c0,0.1,0,0.1-0.1,0.2c0.1,0.1,0.1,0.2,0.2,0.3
c-0.2,0-0.1,0-0.1,0.3c0.2,0.1,1.1,0.7,1.3,0.9c0.2,0.3,0.3,0.6,0.5,0.9c0.6,1,1.7,2,2.1,3.1c0.1,0.4,0.2,0.8,0.2,1.1
c0.1,0.1,0.4,0.2,0.5,0.4c0.1,0.1,0.4,1.1,0.4,1.2c0.2,0,0.3-0.1,0.5-0.1c0.1,0.3,0.2,0.1,0.4,0.3c0.5,0.7,1,1.3,1.4,2
c1.4,1.9,2.9,3.8,4.7,5.3c0.6,0.4,1.1,1.1,1.8,1.3v0c-1.9,0-3.9-0.5-6-0.5c-0.8,0-3.2,0.3-3.4,0.2c-1-1.5-2.1-3-3.1-4.4
c-2-2.8-4-5.5-6.1-8.2c-0.9-1-1.7-1.9-2.6-2.9c-0.4-0.4-0.8-0.8-1.2-1.1c3.4-0.1,8.2-1.6,9.2-4c0.5-1.1,0.1-2.5,0.3-3.9
c0.2-1.1-0.1-2.5-0.4-3.3c-1.1-2.7-5.6-2.9-8.5-1.6c-0.9,0.4-1.5,0.9-2.2,1.4c-0.3,0.3-0.6,0.4-0.7,0.6c-0.1-0.1-0.1-0.1-0.2,0
c0,0.4,0,0.3,0,0.6c0,0,0.1-0.1,0.2-0.1v0.2c-0.1,0-0.2-0.1-0.3-0.1c0,0.1,0.3,0.3,0.1,0.2c0.1,0.3,0.1,0.3,0.3,0.5v0h0
c0,0-0.1-0.1-0.1-0.1c0.1,0.3,0.3,0.9,0.3,0.9c0,0.1,0,0,0,0.1c-0.1-0.1,0-0.1-0.2-0.1c0.1,0.1,0.1,0,0,0.2c0.1,0,0.1,0,0.2,0
c0,0,0,0.1,0,0.1c0,0.2,0.2,0.3,0.3,0.3c0.2,0.3-0.2,1.9-0.1,2.1c-0.2,0-0.1,0-0.2,0c0,0.1,0.1,0,0,0.1c-0.1,0.1-0.1,0.1-0.2,0.2
c0.1,0.2,0.1,0.2,0.2,0.5c-0.2,0,0,0-0.2,0.1c0.2,0.1,0.2,0.2,0.1,0.4c0.1,0.1,0.1,0,0.1,0.2c0.1,0,0.1,0,0.2,0
c-0.2,0.1,0,0.3-0.2,0.5c0.1,0.1,0.1,0.1,0.2,0.2c0,0.1-0.1,0.1-0.1,0.2c0.1,0.1,0.1,0.1,0.1,0.3c0,0-0.1,0-0.1,0
c0.1,0.2,0,0.1,0,0.3h0c0-0.1,0,0,0.1-0.1c0,0.1,0,0.1,0,0.2c-0.1,0,0,0-0.1,0c0.2,0,0,0.3-0.1,0.4c0.2,0,0-0.1,0.2,0.1v0
c-0.1,0-0.1,0-0.2,0v0.2h0c0.1-0.1,0-0.1,0.1,0c0,0.1,0,0,0,0.1c0,0-0.1,0-0.2,0c0,0,0-0.1,0-0.1c0.1,0.3,0.1,0.1,0,0.3h0.2
c-0.1,0.4,0,0.4-0.1,0.7c0,0,0.1-0.1,0.1-0.1c-0.1,0.2-0.2,0.1-0.1,0.3c0,0,0,0,0.1,0.1c-0.1,0-0.1,0-0.2,0c0,0.1,0.1,0.2,0.1,0.2
c0,0,0.1-0.1,0.1-0.1c-0.1,0.1,0,0.1-0.2,0.1c0.1,0.2,0,0.2,0.1,0.3c0,0-0.1,0-0.1,0c0.1,0.1,0.2,0.2,0.1,0.3c0.1,0,0,0,0,0.1
c-0.1,0.3,0.1,0.7,0,1.1c-0.1-0.1,0,0-0.1,0c0.1,0.1,0.1,0.3,0,0.3c0.1,0.1,0.1,0.2,0.2,0.2c-0.2,0-0.1,0.1-0.2,0.2
c0.1,0,0.1,0.1,0.2,0.2c-0.1,0-0.1,0-0.2,0c0.1,0.2,0,0.2,0,0.4c0-0.1,0.1-0.1,0.2-0.2v0.1c-0.2,0.2-0.1,0.2,0.1,0.5
c-0.1-0.1-0.2-0.2-0.3-0.2v0.1c0.4,0.3,0.3,2,0.3,3.4c0,2.3,0.1,4.5,0.1,6.8c0.2,1.1,0.2,2.7,0,3.5l-0.1-0.1c0,0.2-0.1,0.3-0.1,0.5
h-0.2c0-0.1-0.1-0.2-0.2-0.2c0,0.1,0,0,0,0.1c0-0.1-0.1-0.1-0.2-0.2c0,0.1,0,0.1,0,0.2v-0.1c0,0-0.1-0.1-0.1-0.2c0,0,0,0.1-0.1,0.1
c0,0.1,0,0.2,0,0.3h-0.2v-0.1c-0.1-0.2,0-0.2,0-0.3h0c-0.1,0.3-0.1,0-0.1,0.3c0,0-0.1,0-0.1,0c0-0.1-0.1-0.2-0.1-0.3
c0,0-0.1,0.1-0.2,0.1c0,0.1,0,0.3,0,0.4c-0.1-0.1-0.4-0.4-0.4-0.5c0-0.1,0.1-0.1,0.1-0.2c-0.1,0-0.1,0.1-0.2,0.1
c0,0-0.1-0.1-0.1-0.2C77.2,45.1,77.2,45,77,45c-0.1,0.2-0.2,0.4-0.3,0.6h-0.5v0c0.1-0.2,0.1-0.3,0.1-0.6c0.1,0,0,0.1,0.1,0
c0-0.1,0.1-0.2,0.1-0.3c-0.3,0-0.3,0.1-0.5,0.2c-0.1-0.1-0.3-0.1-0.4-0.2c0,0.2,0,0.2,0,0.3h0c0-0.1-0.1-0.3-0.2-0.5c0,0,0,0,0,0
c-0.1,0-0.2,0-0.2,0c0,0.1,0,0.2,0,0.3c-0.1-0.1-0.1-0.1-0.2-0.2c0,0.1,0.1,0.2,0.1,0.3c-0.2,0.1-0.1,0-0.2,0.2c0-0.2,0-0.4,0-0.6
c0,0-0.1,0-0.1,0V45c0-0.2-0.1-0.3-0.2-0.4h0c0,0,0,0.1,0,0.1c0,0.2,0.1,0.3,0.2,0.7h0v-0.1c-0.2-0.2-0.4-0.3-0.6-0.4v0
c0,0.2,0.1,0.2,0,0.3h0c0-0.2-0.1-0.3-0.2-0.3c0,0.2,0,0.4,0,0.5c-0.1-0.1-0.1-0.2-0.2-0.3c-0.2,0.2-0.3,0.1-0.3,0
c-0.1,0-0.3-0.1-0.2-0.3c0.1,0,0,0,0,0c0-0.1-0.1-0.2-0.1-0.3c0,0-0.1,0.1-0.2,0.1c0.1,0.3,0.2,0.5,0.2,0.8c0,0-0.1-0.1-0.1-0.1
c0.1-0.1,0,0,0-0.1c-0.2,0.1,0,0.1-0.2,0c0.1-0.1,0.1-0.1,0.2-0.1c0,0,0-0.1,0-0.1c0,0-0.1,0-0.1,0c0,0.3-0.2,0-0.3,0.3
c0,0-0.1,0-0.2,0c0.2-1.5,0.4-2.9,0.6-4.4c0.1-1.5,0.3-3.1,0.4-4.6c0-1.5,0-3,0.1-4.5c0-0.7,0.1-1.4,0.1-2.2c0.2-2,0.3-4.1,0.5-6.1
c0.3-2.1-0.3-7-1.3-7.7c-1.4-1.1-4.8-0.4-6.3,0.1h0c0-0.3-0.1-0.7-0.2-1c1.2-0.4,4-1.9,4.5-2.5c0.1,0.1,0.1,0,0,0.2
c0.1,0,0.2,0,0.2-0.1c0,0.2-0.1,0.1-0.2,0.3c0.1,0,0.1,0,0.2,0c0,0,0,0.1,0,0.1c0-0.1-0.2-0.1,0-0.2c0-0.1,0.3,0,0.5,0v0
c0,0.1-0.1,0.1,0,0.2v-0.1c0.2,0,0.4-0.1,0.6-0.1c-0.1-0.2,0-0.1,0-0.2c0.2,0.1,0.3,0.1,0.5,0.3c0.1,0,0.1-0.1,0.2-0.1
c0,0.1,0,0.2,0.1,0.2c0-0.1,0,0,0.1-0.1c0-0.1,0-0.1,0-0.2c-0.1,0.1-0.1,0.1-0.2,0v-0.2h0.1c0.1,0,0,0,0.2,0c0,0-0.1,0.1-0.1,0.1
c0.1,0,0.3-0.1,0.4-0.1c0,0.2,0,0.2,0.1,0.2c0,0,0-0.1,0-0.1h0.1c0.1-0.1,0.3,0,0.2,0c-0.1,0-0.2,0.1-0.2,0.1v0.1
c0.1,0,0.1,0,0.2,0.1c0.3-0.1,0.4-0.2,0.6-0.3c0.1,0.2,0.1,0.1,0.2,0.3c0,0,0.1,0,0.1,0c0-0.2,0-0.2,0.1-0.3c0.1,0.1,0.1,0,0,0.2
c0.2,0.4,0.5,0.1,0.9,0.3c0.1-0.1,0.2-0.1,0.2-0.3c0.1,0,0.1,0,0.2,0.1c0,0-0.1,0.1-0.1,0.1c0.1,0,0.2,0,0.3,0
c-0.1-0.1-0.1-0.1-0.2-0.1c0-0.1,0-0.1,0-0.2c0.3,0.2,0.5,0.2,0.9,0.4c0,0,0-0.1,0-0.2c0.1,0.1,0.2,0.1,0.3,0.2
c0-0.1,0-0.1-0.1-0.2c0.1,0,0.2-0.1,0.2,0c0.1,0,0-0.1,0.2,0v0.1c0.1-0.1,0.1-0.1,0.2-0.1c0,0.2-0.1,0.1,0.1,0.2
c0,0,0.2-0.1,0.2-0.1c0.1,0.1,1.3,0.5,1.5,0.7c0.3,0.4,0.2,1.4,0.2,2c2-0.2,5-1.9,6.2-3c0.3,0.2,0.4,0.1,0.6,0v0
c-0.2,0-0.5,0-0.4-0.1c-0.1-0.1,0,0,0-0.1c0.1,0,0.2-0.1,0.3-0.1c0,0.1,0,0,0,0.1c0.1-0.1,0,0,0.1,0c0-0.1-0.1-0.1,0-0.2
c0-0.1,0.1-0.1,0.1-0.2c0.2,0.1,0.4,0,0.6,0.2v-0.2c0.1,0,0.1,0,0.2,0v0h-0.1c-0.1,0.1-0.1,0.1-0.2,0.2c-0.2-0.1-0.2-0.1-0.4,0
c0-0.1-0.1-0.1-0.1-0.2c0,0.1,0,0.1,0,0.2c0,0-0.1-0.1-0.1-0.1c0,0.2,0,0.4,0.2,0.4c0.1,0.1,0.3,0.1,0.4,0c-0.1,0-0.1,0-0.2,0v-0.2
c0.1-0.1,0.1,0,0.2-0.1c-0.2,0-0.2,0.1-0.4,0.2c0,0-0.1,0-0.1,0c0.1-0.1,0-0.1,0-0.3c0.4,0.1,0.5-0.1,1,0.1c0-0.2,0-0.1,0.1-0.2
c0,0,0,0.1,0,0.1c-0.1,0,0,0-0.1,0.1c0.1-0.1,0.1-0.1,0.3,0c0-0.1,0-0.1,0-0.2c0,0,0-0.1,0-0.1c-0.1,0.1-0.1,0.1-0.3,0h0.1
c0.1-0.1,0.6-0.1,0.7,0v0c-0.2,0.1,0,0.1-0.3,0.2c-0.1-0.1,0-0.1-0.2-0.1c0,0,0,0.1,0,0.1c0.2,0.1,0.6,0.1,0.7,0h0.1v-0.1
c0,0-0.1,0-0.1,0c-0.2,0.1-0.1,0.1-0.2,0.1c0-0.1,0-0.1,0-0.2c0,0,0-0.1,0-0.1c0.1,0,0.3,0.1,0.4,0.2v0c0,0-0.1-0.1-0.1-0.2
C88.9,11.8,89,11.8,89,11.7"></path>
<path class="st0" d="M166.8,3.7c-0.2,2.6-0.3,5.3-0.5,7.9c-0.2,3.6-0.3,7.2-0.5,10.9c0,0.9,0,1.8,0,2.7c0,1.5-0.1,3-0.1,4.4v5.7
c0,1.1,0,2.2,0,3.2c0.1,1.3,0.2,2.7,0.2,4c0.1,0.5,0.1,1.1,0.2,1.6c-0.2,0.4-0.5,0.8-0.7,1.3c-2.5,0-5,1-6.8,0.6
c0.2-1.6,0.4-3.2,0.5-4.7c0.1-0.4,0.3-0.7,0.3-1h0c0,0,0.1,0.1,0.1,0.1c0-0.2,0-0.1,0.1-0.3c0,0,0-0.1,0-0.1c0,0-0.1,0.1-0.1,0.1
c0,0,0-0.1,0-0.1h-0.1c0.2-0.2,0.1,0,0.3-0.3v-0.3c-0.2,0,0,0-0.2,0c0,0,0.1,0,0.1,0v-0.1c0.1,0.1,0.1,0.1,0.2,0.1v0
c0-0.3,0-0.2-0.2-0.4c0,0,0-0.1,0-0.1c0,0,0.1,0.1,0.1,0.1h0v-0.1c-0.1-0.1,0-0.4,0-0.6c0.2,0,0.2,0,0.3-0.1
c0.2-0.1,0.1-0.5,0.3-0.7v0.2v-0.1c0,0,0.1-0.1,0.1-0.1c-0.1-0.1,0-0.2-0.1-0.2c0-0.1,0-0.1,0-0.2c0,0,0.1,0.1,0.1,0.1v0
c0-0.1,0-0.2-0.1-0.3V37c0,0-0.1,0-0.1,0v0c0-0.1,0.1-0.2,0.2-0.3c-0.1,0-0.1,0.1-0.2,0.1c0,0,0.1-0.1,0.1-0.1
c-0.3,0.1-0.4-0.1-0.7-0.1c0.1-0.2,0.2-0.3,0.2-0.5c-0.1,0-0.1,0-0.2,0c0.1-0.1,0.2-0.1,0.2-0.2c0,0,0-0.1,0-0.1
c-0.1,0-0.2,0-0.3,0v-0.2c0.1,0,0.3,0,0.3-0.2c0-0.1,0,0,0-0.1h-0.2c0.1-0.1,0.1-0.1,0.3-0.1c0,0,0-0.1,0-0.1h-0.1v0
c0.2-0.1,0.1,0,0.2-0.2c-0.1,0-0.1,0-0.1-0.1c0,0,0,0,0,0c-0.1-0.1,0,0-0.1-0.1v0c0.1,0,0.2,0,0.2,0v0c0,0-0.1,0-0.1,0
c0,0,0.1,0,0.1,0c-0.1-0.1-0.2-0.1-0.2-0.2c0,0,0.1,0,0.2-0.1v-0.1H160c0.1-0.3,0.3-0.1,0.3-0.3c-0.1,0-0.2,0-0.3,0v-0.2
c0.1-0.1,0.1-0.1,0.2-0.2c-0.2-0.1-0.1,0-0.2-0.2c0.1-0.1,0,0,0.1-0.1c-0.1-0.3,0-0.6,0-0.8c0.1,0,0.1,0.1,0.2,0
c0.1-0.1,0,0,0.1-0.2c-0.1,0-0.2,0-0.3,0c0-0.5,0-1.3,0.2-1.6c-0.2-0.1-0.1-0.1-0.2-0.3c0,0,0.1,0,0.1,0c-0.1-0.2,0-0.5-0.1-0.5
c0,0,0-0.1,0-0.1c0.1,0,0.1,0,0.2,0c0-0.3-0.1-0.2-0.1-0.5c0.1-0.1,0,0,0.1-0.1c0,0-0.2-2.8-0.1-3.8c-0.1-2.3-0.1-4.6-0.2-6.8
c-0.1-1.9-0.2-3.8-0.2-5.7c-0.4-2,0.1-4.1-0.9-5.4c-0.8-1-3.2-1.1-4.9-1.1v0c0.3-0.5,0.6-1,0.9-1.6c0.1,0,0.3,0,0.4,0
c0,0.1,0,0.1,0.1,0.1c0.1-0.2,0.4-0.1,0.6-0.1c0,0.1-0.1,0.1-0.1,0.2c0.2,0,0.2,0,0.3-0.1c-0.1,0-0.1,0.1-0.1,0h0.1
c0.2-0.1,0.8,0,1.2,0.1c0-0.1,0-0.1,0-0.2c0.2,0.1,0.2,0,0.3,0.2c0-0.1,0-0.1,0-0.2c0.5,0,0.4,0.1,0.8,0c-0.1,0.1-0.1,0.1,0,0.2
c0.2,0,0.1-0.1,0.2,0c0-0.1-0.1-0.1-0.2-0.2c0.1-0.1,0.4-0.1,0.6,0c0,0.2,0,0.2,0.2,0.2c0.1,0,0.1,0,0.2,0h-0.1
c-0.1-0.1-0.2-0.1-0.3-0.2c0,0,0-0.1,0-0.1c0.4,0,0.4,0.1,0.6,0c0,0.2,0.1,0.1,0.2,0.2c0-0.1,0-0.1,0-0.2c0.3,0.1,0.6-0.1,1.1-0.1
v0c-0.1,0.1,0,0-0.1,0.2c0.1,0,0.2,0.1,0.2,0.1c0.1-0.2,0.3-0.3,0.4-0.2c0,0-0.1,0-0.1,0c0.4,0,0.6-0.1,0.8-0.1c0,0.1,0,0.2,0,0.2
c0.1,0,0.3-0.1,0.4-0.1v0c0,0-0.1-0.1-0.1-0.1c-0.1,0,0,0-0.1,0c0,0-0.1-0.1-0.1-0.1h0.1c0.1,0,0.1,0,0.2,0
c0.1,0.2,0.2,0.2,0.3,0.3c0,0,0.1,0,0.1,0c0,0-0.1-0.1-0.1-0.2c0,0,0.1-0.1,0.2-0.1c0,0,0-0.1,0-0.1c-0.1,0.1-0.2,0.1-0.3,0.1
c0-0.1,0-0.1,0-0.2c0.2,0.1,0.3,0,0.5-0.1c0.1,0.2,0.5,0.3,0.8,0.1c0-0.1,0-0.1,0-0.1c0,0,0-0.1,0-0.1c0.2,0.1,0.2,0.1,0.4,0.2
c0,0.1,0,0.1,0,0.2c0.2-0.1,0.2,0,0.4-0.2v0c0,0-0.1,0-0.1,0c-0.2,0-0.4-0.1-0.5-0.1c0,0,0-0.1,0-0.1h0.9c-0.1,0,0,0,0-0.1
c0.1-0.1,0-0.1,0.2-0.1v0c-0.1,0.2-0.1,0.1,0,0.2c0,0,0.1-0.1,0.1-0.1c0-0.2-0.1-0.2,0-0.3h0.2v0c-0.1,0.1-0.1,0.2,0,0.2v0.1
c0.2-0.1,0.1-0.1,0.3,0c0,0.3-0.1,0.1,0,0.3c0,0,0.1-0.1,0.1-0.1c0-0.2,0-0.1,0-0.3c0.1-0.1,0.1-0.1,0.2-0.2c0.1,0,0.1,0,0.2,0
c-0.1,0.1-0.1,0.1-0.2,0.2c0,0,0,0,0.1,0c0.2,0,0.4,0,0.5,0c-0.1-0.1-0.1-0.1,0-0.2c-0.1,0-0.2,0.1-0.3,0c0,0,0.1-0.1,0.1-0.1
C166.6,3.8,166.7,3.9,166.8,3.7"></path>
<path class="st0" d="M190.6,46.1c-1.2-0.1-2.5-0.1-3.7-0.2c-1.3-0.2-2.6,0.1-3.6-0.3c-2.7-1-4.1-3.8-5.7-5.9
c-2.7-3.5-5.4-7-8.2-10.4c-0.5-0.6-1.3-1-1.8-1.6c3.9-0.5,8.1-3.2,9.5-6.3c0.5-1.1,1-5.8,0.2-6.9c-0.4-0.5-2.9-0.9-3.9-0.9
c0.2-0.4,0.4-0.8,0.5-1.2c0.3,0.2,0.6,0.1,1,0.3c0-0.3,0.2-0.4,0.4-0.5c0.7,0.1,1.4,0.1,2.1,0.2c2.2,0.3,5.5,0.3,7.3-0.4
c0.2,0.3,0.3,1,0.3,1.4v1.8c-0.3,0.3-0.4,0.8-0.5,1.2c0,0-0.1-0.1-0.1-0.1c0,0.2-0.4,1.1-0.6,1.3c0,0,0-0.1,0-0.1
c-0.2,0.2-0.3,0.4-0.3,0.5c-0.1,0,0,0-0.1,0c-0.1,0.1-0.2,0.3,0,0.2v0.2c0,0-0.1-0.1-0.1-0.1c0.1,2.2-5.2,6.2-7.8,7.5
c0.8,1.3,1.7,2.7,2.5,4c0.2,0.3,0.4,1,0.5,1.1c0.1,0,0,0,0.1,0c0,0.2,0.5,0.6,0.6,1c0,0,1.4,2.3,1.6,2.3c0,0-0.1,0.1-0.1,0.1
c0.1,0.2,0.3,0.7,0.5,1c0.3,0.3,0.6,0.5,0.6,0.8c0.2,0,0-0.1,0.2,0c-0.1,0.1-0.1,0.1,0,0.2c0.4,0.2,0.9,0.9,0.7,1.2
c0.1,0.1,0.4,0.8,0.6,0.9c0.2,0,0.3,0.1,0.5,0.1c0.2,0.3,0.4,0.6,0.6,0.8c1.5,2.1,3.3,5.2,6.3,5.6V46.1z"></path>
<path class="st0" d="M29.4,7.6L29,16.1l-0.1,7v5.4v2.4l0.2,6.8l0,2c0.4,2.4,0.1,6.8,1.4,8.1c-0.2,0.5-1,2.5-1,2.5
c-0.3,0-0.4,0-0.6,0.2c-0.1-0.1-0.1-0.1-0.2-0.2c0.1,0.2,0,0.2-0.2,0.3l0.3,0.1l-0.4,0.1c0,0.5-0.1,0.5,0,0.8
c-0.1-0.1-0.1-0.2-0.2-0.4v0.8c0-0.2,0-0.2,0.1-0.3l0,0.6c-0.2,0-0.1,0-0.2,0.2c0.3,0.3-1.6,2.8-2,3.2c-2,2.6-4.4,4.8-7.4,6.3
c-0.9,0.5-2.5,1.4-3.6,1c-0.2,0.2-0.1,0.1-0.2,0.2c0.2,0,0.2-0.1,0.4,0c-0.5,0.1-0.4,0.1-0.6,0.1c-0.1-0.2-0.1-0.3-0.3-0.4l0.2,0.4
c-0.2,0.1-0.2,0.1-0.4,0.1c0.1-0.2,0.1-0.1,0.1-0.2c-0.2,0.1-0.3,0.2-0.5,0.1c0.1-0.2,0.1,0,0-0.2l0.2,0.1l0-0.2
c-0.4,0.1-0.5,0-0.9,0.1c0.2,0,0.2,0,0.4,0v0.2l-0.8-0.1h0.3v-0.3l-0.2,0l-0.2-0.1c-0.2,0.1-1.1,0.2-1-0.1l0.4,0.1
c-0.1-0.1-0.1-0.1-0.2-0.3h0.2c-0.2,0-0.4-0.1-0.5,0c-0.1,0.3-0.1,0.2-0.2,0.4l0.2,0c0.3,0.1,0.4,0,0.6,0.2c-0.4,0.1-1.2,0.1-1.2,0
c-0.1-0.1-0.1,0,0-0.2l0.3,0.1c-0.1-0.2-0.1-0.2-0.1-0.2c-0.2,0-0.3-0.1-0.5,0l0,0.2c-0.2,0-0.2-0.1-0.2-0.2c0.1-0.2,0.1-0.1,0-0.4
l-0.2,0c0.1,0.1,0.1,0.1,0.1,0.2l-0.2,0.1l-0.2,0l0.1,0.3c-0.2,0-0.2,0-0.3-0.1l0.1-0.2c-0.3,0.2-0.2,0.1-0.2,0.2
c-0.2,0-0.3-0.1-0.2-0.2l-1,0l0.6-0.2l-0.1-0.2c-0.2,0.1-0.2,0-0.4,0c-0.1,0.2-0.1,0.2-0.3,0.3V63c-0.6-0.1-0.7,0-1.1-0.2
c0.1-0.2,0.1-0.1,0-0.2c-0.2,0.1-0.2,0.1-0.3,0.2l-2.2-1.2c-1.8-1.2-3.5-3.1-4.4-5.2c-2.2-5.1,1.1-10.8,4.5-12.5v0.3
C5.4,44,5.4,44,5.5,43.8c0,0.2,0,0.1,0.1,0.2v-0.4l0.1,0.2L5.9,44l0.2,0c0.1-0.1,0.2-0.4,0.3-0.5c0.1,0.1,0.1,0.1,0,0.3l0.4-0.2
c0.2,0.2,0.3,0.2,0.5,0.2l-0.1-0.4c-0.1-0.2-0.1-0.3-0.2-0.5c0.1-0.1,0.3-0.1,0.4-0.2c0.1,0.4,0.2,0.6,0.5,0.8
c0.2-0.1,0.1-0.1,0.2,0l0.3,0l-0.1-0.3c0.4,0,0.3-0.3,0.5-0.5c0,0.3-0.1,0.4,0.1,0.6l0.3-0.4c0,0.3,0,0.1,0.2,0.3
c0-0.3,0-0.4,0.2-0.6v0.6l0.1-0.2l0.1,0.2l0.2-0.2l0.3-0.1c0.1,0.2,0.1,0.4,0.1,0.5c0.3,0.1,0.2,0.4,0.4,0.5l0.2-0.3l0,0.2
c0.1,0.1,0,0.1,0.2,0l0.3,0l-0.2,0.2c-0.1-0.1-0.1-0.1-0.2-0.1c0.2,0.1,0.2,0.1,0.4,0.2c0.1-0.2,0-0.1,0.1-0.2c0.1,0,0.1,0,0.2,0.1
l0.3,0c-0.1-0.1-0.1-0.4,0-0.4c0.2,0,0.2-0.2,0.3-0.3l0,0.3c0.1-0.3,0-0.4,0.2-0.6c2.5,1.1,4.3,2.8,5.2,5.5c1.1,3.5-0.9,6-3,7.3
c-0.6,0.4-1.5,0.8-2.6,0.6c-1.2-0.2-2-0.8-2.8-1.3L8.7,55l-0.8-0.6c-0.8,0.1-2.1,1-2.2,1.8l0.9,1c1,0.8,2.2,1.5,3.6,2
c1,0.3,2.1,0.6,3.4,0.6c5.3,0.1,8.1-2.4,9-6.7l0.3-5.6c0.2-1.4,0.2-3.1,0-4.5l0-2.9l-0.1-5.5c0-0.8-0.1-1.9,0.1-2.4
c0.1,0,0.3,0,0.4-0.2c-0.2,0-0.2,0-0.3-0.2l0.2,0l-0.4-0.2l0.4,0l0-0.2l-0.2,0c0.1-0.1,0.1-0.1,0.2,0c0-0.1,0-0.3,0-0.5
c-0.1-0.1-0.2-0.1-0.4-0.1c0.2-0.1,0.1-0.2,0.4-0.2c0-0.3-0.1-0.6-0.2-0.6c0.2-0.3,0.1-0.6,0-0.6l0.1-0.6l-0.2,0v-0.3l0.2,0
l-0.1-0.3c-0.2-0.1-0.2-0.1-0.2-0.2c0.2,0,0.2,0.1,0.3-0.1v-1c-0.2,0-0.2,0-0.2-0.3c0.3,0,0.2,0,0.3-0.1c-0.1-0.5,0-0.7,0-1.2
c-0.1,0.1-0.1,0-0.2,0l0.2-0.3c0-0.3,0.1-0.9-0.2-0.9c0.1-0.1,0.1-0.1,0.2-0.2h-0.3l0.2-0.2c0.1-0.1,0.1-0.1,0.2-0.3h-0.2v-0.3
l0.2,0v-0.5c-0.1-0.1-0.2,0-0.1-0.2l0.2-0.5c-0.1-0.1,0.1-0.3,0.1-0.6c-0.3,0-0.2,0-0.4,0c0.1-0.1,0.3-0.2,0.4-0.3
c-0.1-0.1-0.1-0.3,0-0.5c-0.1,0-0.1,0-0.2,0l0.2,0c0-0.2,0-0.1-0.1-0.2l-0.3,0l0.4-0.2l-0.2-0.1C22.9,20,23,20,23.1,20
c-0.2-0.2-0.4-0.2-0.6-0.2c0-0.2,0-0.2,0.2-0.2v-0.2L22.3,16c-0.6-3.8-1.2-5.3-5.7-5.1c0.1-0.4,0-0.8,0.2-1c0-0.3,0.2-0.5,0.4-0.6
c0.4,0,0.4,0,0.6,0c-0.1,0.1,0,0.1-0.2,0.2c-0.1-0.1,0,0-0.2,0l0.1,0.2l0.2-0.1c0.2,0,0.4,0.1,0.7,0c-0.1-0.1-0.1-0.1-0.1-0.3
c0.2,0,0.4,0,0.6,0c-0.1,0.2-0.1,0.1,0,0.3C19,9.4,19,9.4,19.1,9.3h0.3c-0.2,0.1-0.2,0.1-0.2,0.2c0.2,0,0.4,0,0.6,0.1l-0.2,0
l0.2,0.3c0.1-0.1,0.1-0.1,0.2-0.1l-0.2-0.1c0.1-0.2,0-0.1,0.1-0.3l0.1,0.3c0.1,0,0.1-0.1,0.2,0c0,0.1,0.3,0.2,0.5,0l-0.2-0.1
c0.1-0.1,0.1-0.1,0.2-0.2c-0.2-0.1-0.2,0.1-0.3-0.2h1l-0.2,0.2c0.3,0,0.5,0,0.7,0c0,0.1-0.1,0.2,0.1,0.2c0.1,0,0.3,0,0.4-0.2
c0.1-0.2,0-0.2,0.2-0.2l0.3-0.2C23,9.2,23,9.2,23.2,9.3c0.3,0.1,0.4,0.1,0.5,0c-0.2,0-0.2,0-0.2-0.1c0.3,0,0.5-0.2,0.9-0.3
c0,0.2,0,0.1,0.2,0.2c0.1-0.2,0-0.1,0.2-0.1c0-0.1,0.9-0.3,1.2-0.4C27.1,8.3,28.6,8.2,29.4,7.6 M15.3,48.9l-1.6,0.7
c-0.6,0.3-1,0.8-1.5,1.2c0.4,0.8,0.4,2.3,1.4,2.5C15.3,53.6,16.4,49.8,15.3,48.9 M10.4,46.2c-0.6,0.2-1.3,0.3-1.8,0.5
c-2.7,1.2-4.2,3.8-3.5,7.7h0.3c1-0.3,1.4-0.6,2.1-1.1c0-0.8-0.6-2.7-0.3-3.2l1.1-0.8c0.3-0.2,0.6-0.6,1.2-0.5
c0.8,0.2,1.5,1.5,2.6,1.3c1.1-0.2,2.4-1.2,2.8-2.2C13.5,47,12.8,46.2,10.4,46.2"></path>
<path class="st0" d="M39.1,56.1c0.2,0.4,0.2,0.5,0.3,0.5c0.1,0,0.2-0.1,0.4-0.6c0.2-0.4,0.6-1.2,1.2-2.4c0.5-1,0.7-1.4,1-2.1
c0.2-0.5,0.4-0.6,0.5-0.7c0.2-0.1,0.3-0.1,0.4-0.1s0.1,0,0.1-0.1c0-0.1-0.1-0.1-0.2-0.1c-0.3,0-0.7,0-0.8,0c-0.1,0-0.5,0-0.9,0
c-0.2,0-0.2,0-0.2,0.1c0,0.1,0.1,0.1,0.1,0.1c0.1,0,0.2,0,0.3,0c0.1,0,0.1,0.1,0.1,0.1c0,0.1,0,0.2-0.1,0.3c-0.2,0.5-1.3,3-1.7,3.9
h0l-1.5-3.5C38.1,51.3,38,51.1,38,51c0-0.1,0-0.1,0.1-0.2c0.1,0,0.2-0.1,0.3-0.1c0.1,0,0.1,0,0.1-0.1c0-0.1-0.1-0.1-0.2-0.1
c-0.4,0-0.9,0-1.1,0c-0.3,0-0.8,0-1.3,0c-0.1,0-0.2,0-0.2,0.1c0,0,0,0.1,0.1,0.1c0.1,0,0.2,0,0.3,0c0.3,0.1,0.5,0.2,0.7,0.6
L39.1,56.1z"></path>
<path class="st0" d="M50.3,54.3c0,0.8,0,1.4,0,1.7c0,0.2-0.1,0.4-0.3,0.4c-0.1,0-0.2,0-0.3,0c-0.1,0-0.1,0-0.1,0.1
c0,0.1,0.1,0.1,0.2,0.1c0.4,0,0.9,0,1.1,0c0.2,0,0.8,0,1.4,0c0.1,0,0.2,0,0.2-0.1c0,0,0-0.1-0.1-0.1c-0.1,0-0.3,0-0.4,0
c-0.3,0-0.3-0.2-0.3-0.4c0-0.3,0-1,0-1.7v-1.4c0-1.2,0-1.4,0-1.6c0-0.3,0.1-0.4,0.3-0.4c0.1,0,0.2,0,0.3,0c0.1,0,0.1,0,0.1-0.1
c0,0-0.1-0.1-0.2-0.1c-0.3,0-0.8,0-1.1,0c-0.3,0-0.8,0-1.1,0c-0.1,0-0.2,0-0.2,0.1c0,0.1,0.1,0.1,0.1,0.1c0.1,0,0.2,0,0.3,0
c0.2,0,0.3,0.2,0.3,0.4c0,0.2,0,0.5,0,1.6V54.3z"></path>
<path class="st0" d="M61.5,52.9c0-1.2,0-1.4,0-1.6c0-0.3,0.1-0.4,0.3-0.4c0.1,0,0.2,0,0.2,0c0.1,0,0.1,0,0.1-0.1
c0-0.1-0.1-0.1-0.2-0.1c-0.3,0-0.8,0-1.1,0c-0.2,0-0.8,0-1.2,0c-0.1,0-0.2,0-0.2,0.1c0,0.1,0.1,0.1,0.1,0.1c0.1,0,0.3,0,0.3,0
c0.3,0.1,0.4,0.2,0.4,0.4c0,0.2,0,0.5,0,1.6v1.4c0,0.7,0,1.3,0,1.7c0,0.2-0.1,0.4-0.3,0.4c-0.1,0-0.2,0-0.3,0c-0.1,0-0.1,0-0.1,0.1
c0,0.1,0.1,0.1,0.2,0.1c0.3,0,0.9,0,1.1,0c0.2,0,0.8,0,1.3,0c0.1,0,0.2,0,0.2-0.1c0,0,0-0.1-0.1-0.1c-0.1,0-0.3,0-0.4,0
c-0.2,0-0.3-0.2-0.3-0.4c0-0.3,0-0.9,0-1.7v-0.7h0l0.1,0.1c0.2,0.2,1.9,2,2.3,2.3c0.4,0.3,0.6,0.5,1.1,0.5c0.2,0,0.3,0,0.6,0h0.8
c0.2,0,0.2,0,0.2-0.1c0,0-0.1-0.1-0.1-0.1c-0.1,0-0.3,0-0.5-0.1c-0.5-0.2-0.9-0.5-1.2-0.8c-0.3-0.3-2-1.9-2.4-2.3
c0.3-0.3,1.6-1.4,1.9-1.7c0.4-0.3,0.7-0.5,0.9-0.6c0.2-0.1,0.4-0.1,0.5-0.1c0.1,0,0.1,0,0.1-0.1c0-0.1-0.1-0.1-0.1-0.1
c-0.3,0-0.7,0-1,0c-0.2,0-0.7,0-0.9,0c-0.1,0-0.1,0-0.1,0.1c0,0,0,0.1,0.1,0.1c0.1,0,0.1,0.1,0.1,0.2c0,0.1-0.2,0.3-0.4,0.6
c-0.3,0.3-1.5,1.4-1.8,1.7h0V52.9z"></path>
<path class="st0" d="M73.4,54.3c0,0.8,0,1.4,0,1.7c0,0.2-0.1,0.4-0.2,0.4c-0.1,0-0.2,0-0.3,0c-0.1,0-0.1,0-0.1,0.1
c0,0.1,0.1,0.1,0.2,0.1c0.3,0,0.9,0,1.1,0c0.2,0,0.8,0,1.4,0c0.1,0,0.2,0,0.2-0.1c0,0,0-0.1-0.1-0.1c-0.1,0-0.3,0-0.4,0
c-0.3,0-0.3-0.2-0.3-0.4c0-0.3,0-1,0-1.7v-1.4c0-1.2,0-1.4,0-1.6c0-0.3,0.1-0.4,0.3-0.4c0.1,0,0.2,0,0.3,0c0.1,0,0.1,0,0.1-0.1
c0,0-0.1-0.1-0.2-0.1c-0.3,0-0.8,0-1.1,0c-0.3,0-0.8,0-1.1,0c-0.1,0-0.2,0-0.2,0.1c0,0.1,0.1,0.1,0.1,0.1c0.1,0,0.2,0,0.3,0
c0.2,0,0.3,0.2,0.3,0.4c0,0.2,0,0.5,0,1.6V54.3z"></path>
<path class="st0" d="M83.6,50.5c-0.1,0-0.1,0.1-0.1,0.3l-0.1,4.6c0,0.7,0,0.9-0.3,1c-0.1,0-0.3,0-0.4,0c-0.1,0-0.1,0-0.1,0.1
c0,0.1,0.1,0.1,0.2,0.1c0.5,0,0.9,0,0.9,0c0.2,0,0.5,0,1.1,0c0.1,0,0.2,0,0.2-0.1c0,0-0.1-0.1-0.1-0.1c-0.1,0-0.3,0-0.5-0.1
c-0.2-0.1-0.3-0.3-0.3-0.9l-0.1-3.3h0c0.2,0.1,1.1,1.1,2.1,2c0.9,0.8,2,1.8,2.6,2.3c0.1,0.1,0.2,0.2,0.3,0.2c0.1,0,0.1-0.1,0.1-0.2
l0.1-4.9c0-0.4,0.1-0.6,0.3-0.7c0.1,0,0.2,0,0.3,0c0.1,0,0.2,0,0.2-0.1c0-0.1-0.1-0.1-0.2-0.1c-0.4,0-0.8,0-0.9,0
c-0.2,0-0.6,0-1.1,0c-0.1,0-0.2,0-0.2,0.1c0,0,0,0.1,0.1,0.1c0.1,0,0.3,0,0.5,0c0.2,0.1,0.3,0.2,0.3,0.7l0.1,3.5h0
c-0.2-0.1-1.3-1.2-1.9-1.8c-1.3-1.1-2.6-2.4-2.7-2.5C83.8,50.6,83.7,50.5,83.6,50.5"></path>
<path class="st0" d="M101,50.5c-0.7,0-1.5,0.1-2.3,0.5c-0.8,0.4-1.5,1.3-1.5,2.5c0,2.1,1.9,3.1,4,3.1c0.7,0,1.5-0.1,2.1-0.3
c0.1-0.1,0.1-0.1,0.1-0.3v-0.9c0-0.4,0-0.7,0-0.9c0-0.3,0.1-0.4,0.3-0.4c0.1,0,0.2,0,0.2,0c0.1,0,0.1,0,0.1-0.1
c0-0.1-0.1-0.1-0.2-0.1c-0.3,0-0.8,0-1,0c-0.3,0-0.8,0-1.3,0c-0.1,0-0.2,0-0.2,0.1c0,0,0.1,0.1,0.1,0.1c0.1,0,0.3,0,0.3,0
c0.3,0.1,0.4,0.2,0.4,0.4c0,0.2,0,0.5,0,0.9v0.7c0,0.1,0,0.2-0.2,0.3c-0.2,0.1-0.5,0.1-0.7,0.1c-1.8,0-3-1.3-3-2.9
c0-1,0.3-1.5,0.8-1.9c0.6-0.5,1.2-0.5,1.7-0.5c1,0,1.7,0.4,1.9,0.6c0.2,0.2,0.3,0.5,0.3,0.6c0,0.1,0,0.1,0.1,0.1
c0.1,0,0.1,0,0.1-0.2c0-1,0.1-1.2,0.1-1.3c0-0.1,0-0.1-0.1-0.1c-0.2,0-0.5-0.1-0.7-0.1C102.4,50.6,101.6,50.5,101,50.5"></path>
<path class="st0" d="M112.2,53.5c0,0.3,0,0.5-0.1,0.7c0,0.1-0.1,0.1-0.1,0.2c0,0,0,0,0.1,0c0,0,0.1-0.1,0.2-0.1
c0.4-0.3,0.8-0.7,1.1-1c0,0,0.1-0.1,0.1-0.2c0,0,0-0.1,0-0.1c0,0-0.1-0.1-0.3-0.1c-0.3-0.1-1.1-0.2-1.2-0.2c-0.1,0-0.2,0-0.2,0.1
c0,0,0.1,0.1,0.1,0.1C111.9,52.9,112.2,53.1,112.2,53.5"></path>
<path class="st0" d="M125,50.5c-1.3,0-2.1,0.3-2.8,0.8c-0.8,0.7-1,1.6-1,2.1c0,0.8,0.2,1.6,1.1,2.3c0.8,0.6,1.8,0.9,3,0.9
c0.6,0,1.2-0.1,1.6-0.2c0.1-0.1,0.2-0.1,0.2-0.2c0.1-0.3,0.2-0.9,0.2-1c0-0.1,0-0.1-0.1-0.1c-0.1,0-0.1,0-0.1,0.2
c0,0.1-0.1,0.4-0.3,0.5c-0.3,0.4-0.8,0.4-1.6,0.4c-1.2,0-2.7-0.9-2.7-2.8c0-0.8,0.2-1.5,0.8-2c0.4-0.3,0.9-0.5,1.6-0.5
c0.8,0,1.5,0.2,1.8,0.5c0.2,0.2,0.3,0.5,0.3,0.7c0,0.1,0,0.2,0.1,0.2c0.1,0,0.1-0.1,0.1-0.2c0-0.2,0-0.6,0-0.8c0-0.3,0-0.4,0-0.4
c0,0,0-0.1-0.1-0.1c-0.3,0-0.5-0.1-0.9-0.1C125.8,50.5,125.5,50.5,125,50.5"></path>
<path class="st0" d="M138.6,50.6c0,0-0.1,0-0.1,0c-0.1,0-0.2,0-0.4,0c-0.2,0-1.9,0-2.2,0c-0.2,0-0.8,0-1.3,0c-0.1,0-0.2,0-0.2,0.1
c0,0.1,0.1,0.1,0.1,0.1c0.1,0,0.3,0,0.3,0c0.3,0.1,0.4,0.2,0.4,0.4c0,0.2,0,0.5,0,1.6v1.4c0,0.7,0,1.3,0,1.7c0,0.2-0.1,0.4-0.3,0.4
c-0.1,0-0.2,0-0.3,0c-0.1,0-0.1,0-0.1,0.1c0,0.1,0.1,0.1,0.2,0.1c0.3,0,0.9,0,1.1,0c0.5,0,1.1,0,2.4,0c0.3,0,0.4,0,0.5-0.2
c0-0.2,0.1-0.7,0.1-0.9c0-0.1,0-0.1-0.1-0.1c-0.1,0-0.1,0-0.1,0.1c-0.1,0.3-0.2,0.5-0.4,0.6c-0.2,0.1-0.6,0.1-0.8,0.1
c-0.9,0-1-0.1-1-0.7c0-0.2,0-0.9,0-1.2v-0.6c0,0,0-0.1,0-0.1c0.2,0,1.1,0,1.2,0c0.3,0,0.4,0.1,0.5,0.3c0,0.1,0,0.2,0,0.3
c0,0,0,0.1,0.1,0.1c0.1,0,0.1-0.1,0.1-0.2c0-0.1,0-0.4,0-0.5c0-0.4,0.1-0.5,0.1-0.6c0,0,0-0.1-0.1-0.1c0,0-0.1,0-0.1,0.1
c-0.1,0.1-0.2,0.1-0.4,0.1c-0.2,0-1.2,0-1.4,0c-0.1,0-0.1,0-0.1-0.1v-2c0-0.1,0-0.1,0.1-0.1c0.2,0,1.1,0,1.2,0
c0.4,0,0.5,0.1,0.6,0.3c0,0.1,0.1,0.2,0.1,0.3c0,0.1,0,0.1,0.1,0.1c0.1,0,0.1,0,0.1-0.1c0-0.1,0-0.4,0-0.5
C138.6,50.8,138.7,50.7,138.6,50.6C138.7,50.6,138.7,50.6,138.6,50.6"></path>
<path class="st0" d="M147.1,50.5c-0.1,0-0.1,0.1-0.1,0.3l-0.1,4.6c0,0.7,0,0.9-0.3,1c-0.1,0-0.3,0-0.4,0c-0.1,0-0.1,0-0.1,0.1
c0,0.1,0.1,0.1,0.2,0.1c0.5,0,0.9,0,0.9,0c0.2,0,0.5,0,1.1,0c0.1,0,0.2,0,0.2-0.1c0,0-0.1-0.1-0.2-0.1c-0.1,0-0.3,0-0.5-0.1
c-0.2-0.1-0.3-0.3-0.3-0.9l-0.1-3.3h0c0.2,0.1,1.1,1.1,2.1,2c0.9,0.8,2,1.8,2.6,2.3c0.1,0.1,0.2,0.2,0.3,0.2c0.1,0,0.1-0.1,0.1-0.2
l0.1-4.9c0-0.4,0.1-0.6,0.3-0.7c0.1,0,0.2,0,0.3,0c0.1,0,0.2,0,0.2-0.1c0-0.1-0.1-0.1-0.2-0.1c-0.4,0-0.8,0-0.9,0
c-0.2,0-0.6,0-1.1,0c-0.1,0-0.2,0-0.2,0.1c0,0,0,0.1,0.1,0.1c0.1,0,0.3,0,0.5,0c0.2,0.1,0.3,0.2,0.3,0.7l0.1,3.5h0
c-0.1-0.1-1.3-1.2-1.9-1.8c-1.3-1.1-2.6-2.4-2.7-2.5C147.3,50.6,147.2,50.5,147.1,50.5"></path>
<path class="st0" d="M160.7,50.5c-0.1,0-0.1,0-0.1,0.1c0,0.1-0.2,0.8-0.2,0.9c0,0.1,0,0.1,0.1,0.1c0.1,0,0.1,0,0.1-0.1
c0-0.1,0.1-0.2,0.1-0.3c0.1-0.2,0.3-0.2,0.8-0.2l1.3,0v3.2c0,0.7,0,1.3,0,1.7c0,0.2-0.1,0.4-0.3,0.4c-0.1,0-0.2,0-0.3,0
c-0.1,0-0.1,0-0.1,0.1c0,0.1,0.1,0.1,0.2,0.1c0.3,0,0.9,0,1.1,0c0.2,0,0.8,0,1.4,0c0.1,0,0.2,0,0.2-0.1c0,0,0-0.1-0.1-0.1
c-0.1,0-0.3,0-0.4,0c-0.3,0-0.3-0.2-0.3-0.4c0-0.3,0-1,0-1.7v-3.2l1.1,0c0.8,0,1,0.2,1,0.4l0,0.1c0,0.1,0,0.2,0.1,0.2
c0.1,0,0.1,0,0.1-0.1c0-0.2,0-0.7,0-0.9c0-0.1,0-0.2-0.1-0.2"></path>
<path class="st0" d="M175.2,51.1c0-0.1,0-0.1,0.1-0.1c0.1,0,0.2,0,0.5,0c0.5,0,1.3,0.3,1.3,1.4c0,0.6-0.3,1-0.5,1.2
c-0.2,0.1-0.3,0.1-0.6,0.1c-0.2,0-0.5,0-0.7-0.1c-0.1,0-0.1-0.1-0.1-0.1V51.1z M174.1,54.3c0,0.7,0,1.3,0,1.7
c0,0.2-0.1,0.4-0.3,0.4c-0.1,0-0.2,0-0.3,0c-0.1,0-0.1,0-0.1,0.1c0,0.1,0.1,0.1,0.2,0.1c0.3,0,0.9,0,1.1,0c0.1,0,0.8,0,1.3,0
c0.1,0,0.2,0,0.2-0.1c0,0,0-0.1-0.1-0.1c-0.1,0-0.3,0-0.4,0c-0.3,0-0.3-0.2-0.3-0.4c0-0.3,0-0.9,0-1.7v-0.1c0,0,0-0.1,0.1-0.1
l0.8,0c0.1,0,0.1,0,0.2,0.1c0.1,0.1,0.5,0.6,0.9,1.1c0.5,0.6,0.8,1,1.2,1.1c0.2,0.1,0.4,0.1,0.9,0.1h0.8c0.1,0,0.2,0,0.2-0.1
c0,0,0-0.1-0.1-0.1c-0.1,0-0.1,0-0.2,0c-0.1,0-0.5-0.1-1-0.5c-0.5-0.5-1.1-1.2-1.9-2c0.9-0.6,1.1-1.2,1.1-1.7
c0-0.5-0.3-0.9-0.6-1.1c-0.5-0.3-1.1-0.3-1.6-0.3c-0.3,0-0.9,0-1.2,0c-0.2,0-0.7,0-1.2,0c-0.1,0-0.2,0-0.2,0.1
c0,0.1,0.1,0.1,0.2,0.1c0.1,0,0.3,0,0.3,0c0.3,0.1,0.4,0.2,0.4,0.4c0,0.2,0,0.5,0,1.6V54.3z"></path>
<path class="st0" d="M190.2,50.6c0,0-0.1,0-0.1,0c-0.1,0-0.2,0-0.4,0c-0.2,0-1.9,0-2.2,0c-0.2,0-0.8,0-1.3,0c-0.1,0-0.2,0-0.2,0.1
c0,0.1,0.1,0.1,0.1,0.1c0.1,0,0.3,0,0.3,0c0.3,0.1,0.4,0.2,0.4,0.4c0,0.2,0,0.5,0,1.6v1.4c0,0.7,0,1.3,0,1.7c0,0.2-0.1,0.4-0.3,0.4
c-0.1,0-0.2,0-0.3,0c-0.1,0-0.1,0-0.1,0.1c0,0.1,0.1,0.1,0.2,0.1c0.3,0,0.9,0,1.1,0c0.5,0,1.1,0,2.4,0c0.3,0,0.4,0,0.5-0.2
c0-0.2,0.1-0.7,0.1-0.9c0-0.1,0-0.1-0.1-0.1c-0.1,0-0.1,0-0.1,0.1c-0.1,0.3-0.2,0.5-0.4,0.6c-0.2,0.1-0.6,0.1-0.8,0.1
c-0.9,0-1-0.1-1-0.7c0-0.2,0-0.9,0-1.2v-0.6c0,0,0-0.1,0.1-0.1c0.2,0,1.1,0,1.2,0c0.3,0,0.4,0.1,0.5,0.3c0,0.1,0,0.2,0,0.3
c0,0,0,0.1,0.1,0.1c0.1,0,0.1-0.1,0.1-0.2c0-0.1,0-0.4,0-0.5c0-0.4,0.1-0.5,0.1-0.6c0,0,0-0.1-0.1-0.1c0,0-0.1,0-0.1,0.1
c-0.1,0.1-0.2,0.1-0.4,0.1c-0.2,0-1.2,0-1.4,0c-0.1,0-0.1,0-0.1-0.1v-2c0-0.1,0-0.1,0.1-0.1c0.2,0,1.1,0,1.2,0
c0.4,0,0.5,0.1,0.6,0.3c0,0.1,0.1,0.2,0.1,0.3c0,0.1,0,0.1,0.1,0.1c0.1,0,0.1,0,0.1-0.1c0-0.1,0-0.4,0-0.5
C190.2,50.8,190.3,50.7,190.2,50.6C190.3,50.6,190.3,50.6,190.2,50.6"></path>
<path class="st0" d="M46.5,10.4l4.7,0.3c0.7,0.1,1.6-0.1,2.1,0.2l-0.1,0.2c-0.1-0.1-0.1-0.1-0.1-0.3l-0.1,0.8l0.2-0.2l0-0.2
c0,0.4,0.2,0.4,0.3,0.8c0.1,0,0.1,0,0.3,0.2l-0.3,0.1c0.3,0.1,0.2,0.2,0.2,0.3c0.2-0.1,0.2-0.2,0.3,0c0.3,0,0.3,0,0.4,0.1
c0.2-0.1,0.3-0.2,0.3-0.2l0.2-0.3c0.2,0,0.3-0.1,0.5-0.1c-0.1,0.2,0,0.1-0.1,0.4c0.3-0.1,0.3-0.3,0.5-0.2c0.4,0,0.4,0,0.3,0.2
l0.2-0.1l0.3,0.1l-0.3,0l0.1,0.2l0.5-0.3c0.1,0.1,0.2,0.3,0.4,0.2c0-0.2,0-0.1,0.1-0.3c0.1,0.3,0.1,0.3,0.3,0.4c0-0.2,0-0.3,0-0.3
c0.1,0.2,0.1,0.2,0.1,0.3c0.2-0.1,0.4-0.1,0.5,0.1c0.1,0,0.1,0.1,0.2,0c0-0.1,0.2-0.2,0.3-0.3l-0.2-0.1c0.5,0.1,0.7,0.3,1.1,0.5
c0.2-0.1,0.2-0.3,0.5-0.3c0.2,0.1,0.1,0.1,0.3,0.1c0.1,0.1,0.2,0.1,0.3,0c-0.1,0.1-0.1,0.1,0,0.2c0.2,0,0.1-0.1,0.2,0l-0.2-0.2
c1.2,0.5,2.3,1.2,3.1,2.1c2.6,3.2,4.5,9.9,3.3,15.8c-0.5,2.7-1.3,5-2.2,7.2c-0.5,1.1-1.1,2.1-1.7,3.1l-0.5,0.9L58,43.5
c-0.7,0.3-3.7,1.9-4.6,2.2c-0.1,0-0.2,0-0.2,0v-0.2c0.2,0.1,0.1,0.1,0.2,0.2c0-0.1,0.1-0.3-0.1-0.2c-0.2-0.2-0.4,0.1-0.7-0.1
l-0.2,0.3l0.2,0c-0.2,0.1-0.3,0.2-0.5,0.1c0.1,0.2,0.2,0.2,0.3,0.3c-0.1,0-0.3,0-0.4,0l0-0.4c-0.2,0-0.1,0-0.2,0.1L52,46l-0.3,0.1
c0.1-0.2,0.1-0.1,0-0.2c-0.2,0.1-0.2,0.1-0.3,0c0-0.2,0-0.1,0.1-0.2l-1-0.1c0,0.1,0,0.1-0.1,0.2c0.3,0,0.2,0,0.3,0l0,0.2
c-0.1-0.1-0.2-0.1-0.4,0c-0.3-0.2-0.3-0.3-0.5-0.4c0,0.2,0.2,0.2,0.2,0.5C50,46,50,46,49.9,46l-0.5,0c0.1-0.1,0.1-0.1,0.1-0.2
l0.3,0l0-0.2c-0.4,0.1-0.5,0-0.8,0.1c0.2,0,0.2,0,0.4,0l0,0.2c-0.1,0-0.6,0.1-0.7-0.2l0.3,0.1c-0.1-0.1,0-0.1,0-0.3
c-0.3,0-0.9,0.2-1-0.2c-0.2-0.2,0-0.2-0.2-0.3c-0.2,0.1-0.2,0.1-0.3,0.2c0,0.2,0.1,0.2,0,0.3c0,0.2,0.1-0.1,0.2,0.2
c0.2-0.1,0.5-0.1,0.6,0c-0.3,0-0.6,0-1.2,0l0.3,0c0-0.2-0.1,0,0-0.2c-0.2,0.1-0.4,0-0.6,0c0-0.2-0.1-0.1-0.1-0.3l-0.2,0.1
c0.1,0.1,0.1,0.1,0.1,0.2c-0.3,0.1-1.1,0.1-1.2-0.2c-0.1-0.1-0.3-0.1-0.4,0c-2.3-0.8-4.5-1.5-6.3-2.8c-4.6-3.3-8.1-12.3-6.1-20.5
c0.5-2,1.2-3.8,2.3-5.3c0.6-0.9,1.6-2,2.5-2.5l2.8-0.8C42,12.8,44.9,11.7,46.5,10.4 M42.9,39.2c0.4,0,1,0.1,1.3,0.3
c0,0.1,1.7,1.1,2.1,1.3c2.1,1.2,6.3,2.4,9.9,1.6c1.9-0.4,3.1-3,3.8-4.7c0.6-1.6,0.7-3.4,1.1-5.3c0.2-1.1,0.3-3.2,0.1-4.4l0-1.5
c-0.2-1.4-0.3-2.8-0.6-4c-1.2-3.9-4-6-8.1-7.1c-1-0.3-2-0.2-3.2-0.4c-1.8-0.3-4.4-0.2-6.1,0.1l-1.3,0.2c-0.7,0.5-1.3,2.5-1.7,3.4
c-1.5,3.9-2.2,11.1-0.4,15.4c0.6,1.4,1.5,2.4,2.3,3.5c0.5,0.6,1,0.7,0.9,1.4c0.1,0.1,0.2,0.1,0.2,0.2l-0.2,0V39.2z"></path>
</g>
</svg>