<svg version="1.1" xmlns="http://www.w3.org/2000/svg" xmlns:xlink="http://www.w3.org/1999/xlink" xmlns:a="http://ns.adobe.com/AdobeSVGViewerExtensions/3.0/" x="0px" y="0px" width="67px" height="67px" viewBox="0 0 67 67" style="enable-background:new 0 0 67 67;" xml:space="preserve"><style type="text/css">.st0{opacity:.7}.st1{fill:none;stroke:#f9f9f9;stroke-miterlimit:10}.st2{fill:#c58d58}</style><defs> </defs> <g class="st0"> <polygon style="fill: none;" class="st1" points="46.1,3 63.9,20.9 63.9,46.1 46.1,63.9 20.9,63.9 3,46.1 3,20.9 20.9,3 	"></polygon> <polygon style="fill: none;" class="st1" points="55.6,9 66.4,31.8 57.9,55.6 35.1,66.4 11.4,57.9 0.5,35.1 9,11.4 31.8,0.5 	"></polygon> </g> <g> <rect x="40.2" y="31.5" transform="matrix(-0.7071 -0.7071 0.7071 -0.7071 44.0109 89.1807)" class="st2" width="0.6" height="8.1"></rect> <rect x="40.2" y="26.2" transform="matrix(0.7071 -0.7071 0.7071 0.7071 -9.5144 37.4719)" class="st2" width="0.6" height="8.1"></rect> </g> <g> <rect x="27" y="26.2" transform="matrix(0.707 0.7072 -0.7072 0.707 29.3832 -10.4842)" class="st2" width="0.6" height="8.1"></rect> <rect x="27" y="31.5" transform="matrix(-0.707 0.7072 -0.7072 -0.707 71.7666 41.2193)" class="st2" width="0.6" height="8.1"></rect> </g> </svg>